<svg xmlns="http://www.w3.org/2000/svg" width="438.53204" height="438.534" viewBox="0 0 438.53204 438.534">
  <title>Capa 1</title>
  <g id="Layer_2" data-name="Layer 2">
    <g id="Layer_1-2" data-name="Layer 1">
      <g id="Capa_1" data-name="Capa 1">
        <path d="M409.133,109.203a218.34547,218.34547,0,0,0-79.798-79.796Q278.93649-.002,219.273,0,159.6015,0,109.21,29.407a218.29031,218.29031,0,0,0-79.8,79.796Q-.00348,159.5985,0,219.267q0,59.67,29.407,110.062a218.34592,218.34592,0,0,0,79.799,79.798q50.39552,29.40747,110.063,29.407,59.67,0,110.065-29.407a218.3953,218.3953,0,0,0,79.795-79.798q29.4045-50.394,29.403-110.062Q438.53347,159.594,409.133,109.203ZM219.27,374.579a151.74734,151.74734,0,0,1-77.943-20.844A154.8954,154.8954,0,0,1,84.8,297.208a151.78723,151.78723,0,0,1-20.843-77.945A151.81415,151.81415,0,0,1,84.8,141.32a154.823,154.823,0,0,1,56.527-56.531A151.81261,151.81261,0,0,1,219.27,63.948Z"/>
      </g>
    </g>
  </g>
</svg>
