
<svg xmlns="http://www.w3.org/2000/svg" xmlns:xlink="http://www.w3.org/1999/xlink" viewBox="0 0 50 50" version="1.1" width="438.53204" height="438.534" fill="#fdfffb">
    <g id="Capa_1" data-name="Capa 1">
      <path class="cls-1" d="M409.133,109.203a218.34539,218.34539,0,0,0-79.798-79.796Q278.93649-.002,219.273,0,159.6015,0,109.21,29.407a218.2903,218.2903,0,0,0-79.8,79.796Q-.00349,159.5985,0,219.267q0,59.67,29.407,110.062a218.34577,218.34577,0,0,0,79.799,79.798q50.39552,29.40751,110.063,29.407,59.67,0,110.065-29.407a218.39526,218.39526,0,0,0,79.795-79.798q29.4045-50.394,29.403-110.062Q438.53347,159.594,409.133,109.203ZM219.27,374.579a151.74731,151.74731,0,0,1-77.943-20.844A154.89547,154.89547,0,0,1,84.8,297.208a151.78719,151.78719,0,0,1-20.843-77.945A151.81418,151.81418,0,0,1,84.8,141.32a154.823,154.823,0,0,1,56.527-56.531A151.81259,151.81259,0,0,1,219.27,63.948V374.579Z"/>
    </g></svg>
