<?xml version="1.0" encoding="utf-8"?>
<!-- Generator: Adobe Illustrator 22.1.0, SVG Export Plug-In . SVG Version: 6.00 Build 0)  -->
<svg version="1.1" id="Layer_1" xmlns="http://www.w3.org/2000/svg" xmlns:xlink="http://www.w3.org/1999/xlink" x="0px" y="0px"
	 width="26px" height="26px" viewBox="0 0 26 26" style="enable-background:new 0 0 26 26;" xml:space="preserve">
<style type="text/css">
	.st0{fill:#0BA2B7;}
</style>
<g id="surface1">
	<g>
		<path d="M3.1,24.4c0.1,0,0.2,0,0.3,0h4c0.1,0,0.2,0,0.3,0H3.1z"/>
	</g>
</g>
<g id="surface1_1_">
	<g>
		<path class="st0" d="M25.5,17.6v5.5c0,0.7-0.4,1.2-1.1,1.3h-6.7c-0.6-0.1-1-0.6-1-1.3v-5.5c0-0.8,0.5-1.3,1.2-1.3H20v-2.9H6.1v2.9
			h2.1c0.7,0,1.2,0.5,1.2,1.3v5.5c0,0.7-0.4,1.2-1,1.3H1.6c-0.6,0-1.1-0.6-1.1-1.3v-5.5c0-0.8,0.5-1.3,1.2-1.3h2V12
			c0-0.1,0-0.1,0-0.2v-0.1v-0.1l0,0l0.1-0.1l0,0l0,0l0,0v-0.1L4,11.3c0.2-0.1,0.3-0.2,0.5-0.3h0.1c0.1,0,0.2,0,0.3,0H5h6.7V8h-2
			C9.1,8,8.6,7.5,8.6,6.7V1.2C8.6,0.5,9.1,0,9.8,0h6.5c0.7,0,1.2,0.5,1.2,1.3v5.5C17.5,7.5,17,8,16.3,8h-2v2.9H21h0.1
			c0.1,0,0.2,0,0.3,0h0.1c0.2,0,0.4,0.1,0.5,0.3l0.2,0.1v0.1l0,0l0,0l0,0l0.1,0.1l0,0c0,0,0,0,0,0.1v0.1c0,0.1,0,0.1,0,0.2v4.3h2
			C25,16.3,25.5,16.9,25.5,17.6z"/>
	</g>
</g>
</svg>
