<?xml version="1.0" encoding="UTF-8"?>
<svg xmlns="http://www.w3.org/2000/svg" xmlns:xlink="http://www.w3.org/1999/xlink" viewBox="0 0 50 50" version="1.1" fill="#030303"><g id="surface1" fill="#030303"><path style=" " d="M 7 2 L 7 48 L 43 48 L 43 15.433594 L 29.167969 2 Z M 29 4 L 41 16 L 29 16 Z M 23.769531 19.941406 C 24.375 19.941406 24.90625 20.195313 25.265625 20.660156 C 26.027344 21.652344 25.976563 23.675781 25.109375 26.679688 C 26.054688 28.285156 27.246094 29.742188 28.464844 30.777344 C 29.792969 30.503906 30.933594 30.367188 31.855469 30.367188 C 34.644531 30.367188 34.949219 31.761719 34.949219 32.363281 C 34.945313 34.292969 32.882813 34.292969 32.105469 34.292969 C 30.773438 34.292969 29.386719 33.78125 27.984375 32.765625 C 25.941406 33.25 23.660156 33.992188 21.625 34.839844 C 19.035156 39.28125 17.457031 39.28125 16.933594 39.28125 C 16.613281 39.28125 16.304688 39.207031 16.019531 39.058594 C 15.113281 38.585938 15 37.894531 15.015625 37.53125 C 15.035156 37.0625 15.089844 35.660156 20.277344 33.40625 C 21.363281 31.4375 22.390625 29.054688 23.074219 26.890625 C 22.285156 25.410156 20.992188 22.503906 21.984375 20.878906 C 22.355469 20.277344 22.988281 19.941406 23.769531 19.941406 Z M 23.742188 21.753906 C 23.679688 21.78125 23.636719 21.796875 23.625 21.800781 C 23.476563 21.933594 23.433594 22.65625 23.8125 23.859375 C 24.019531 22.480469 23.859375 21.875 23.742188 21.753906 Z M 24.402344 29.035156 L 24.359375 29.1875 L 24.308594 29.105469 C 23.914063 30.160156 23.460938 31.230469 22.980469 32.253906 L 23.136719 32.1875 L 23.066406 32.308594 C 24.089844 31.945313 25.132813 31.617188 26.144531 31.339844 L 26.09375 31.296875 L 26.253906 31.261719 C 25.605469 30.597656 24.976563 29.84375 24.402344 29.035156 Z M 31.855469 32.203125 C 31.578125 32.203125 31.273438 32.222656 30.9375 32.25 C 31.34375 32.382813 31.734375 32.453125 32.105469 32.453125 C 32.601563 32.453125 32.863281 32.414063 33 32.378906 C 32.882813 32.308594 32.558594 32.203125 31.855469 32.203125 Z M 18.066406 36.625 C 17.550781 36.957031 17.238281 37.226563 17.066406 37.410156 C 17.265625 37.339844 17.605469 37.117188 18.066406 36.625 Z " fill="#030303"/></g></svg>
