<?xml version="1.0" encoding="utf-8"?>
<!-- Generator: Adobe Illustrator 22.1.0, SVG Export Plug-In . SVG Version: 6.00 Build 0)  -->
<svg version="1.1" id="Layer_1" xmlns="http://www.w3.org/2000/svg" xmlns:xlink="http://www.w3.org/1999/xlink" x="0px" y="0px"
	 viewBox="0 0 498.9 708.7" style="enable-background:new 0 0 498.9 708.7;" xml:space="preserve">
<style type="text/css">
	.st0{fill:#FFFFFF;}
	.st1{fill:#68CBC8;}
	.st2{fill:#3C3C3B;}
	.st3{fill:#D4EFED;}
	.st4{fill:#B7E5E3;}
	.st5{fill:none;}
</style>
<g>
	<g>
		<path class="st0" d="M401.4,432.3c-3.2,0-5.7,2.6-5.7,5.7c0,3.2,2.6,5.7,5.7,5.7c3.2,0,5.7-2.6,5.7-5.7
			C407.1,434.9,404.6,432.3,401.4,432.3"/>
		<path class="st0" d="M401.4,271.6c-3.2,0-5.7,2.6-5.7,5.7c0,3.2,2.6,5.7,5.7,5.7c3.2,0,5.7-2.6,5.7-5.7
			C407.1,274.2,404.6,271.6,401.4,271.6"/>
		<path class="st1" d="M378.4,593.1c-3.2,0-5.7,2.6-5.7,5.7c0,3.2,2.6,5.7,5.7,5.7c3.2,0,5.7-2.6,5.7-5.7
			C384.2,595.6,381.6,593.1,378.4,593.1"/>
		<path class="st0" d="M378.4,524.2c-3.2,0-5.7,2.6-5.7,5.7c0,3.2,2.6,5.7,5.7,5.7c3.2,0,5.7-2.6,5.7-5.7
			C384.2,526.8,381.6,524.2,378.4,524.2"/>
		<path class="st0" d="M384.2,507c0,3.2-2.6,5.7-5.7,5.7c-3.2,0-5.7-2.6-5.7-5.7c0-3.2,2.6-5.7,5.7-5.7
			C381.6,501.2,384.2,503.8,384.2,507"/>
		<path class="st0" d="M332.5,455.3c-3.2,0-5.7,2.6-5.7,5.7c0,3.2,2.6,5.7,5.7,5.7c3.2,0,5.7-2.6,5.7-5.7
			C338.3,457.9,335.7,455.3,332.5,455.3"/>
		<path class="st0" d="M309.5,317.5c-3.2,0-5.7,2.6-5.7,5.7c0,3.2,2.6,5.7,5.7,5.7c3.2,0,5.7-2.6,5.7-5.7
			C315.3,320.1,312.7,317.5,309.5,317.5"/>
		<path class="st0" d="M171.8,478.3c-3.2,0-5.7,2.6-5.7,5.7c0,3.2,2.6,5.7,5.7,5.7c3.2,0,5.7-2.6,5.7-5.7
			C177.5,480.8,174.9,478.3,171.8,478.3"/>
		<path class="st0" d="M125.8,616c-3.2,0-5.7,2.6-5.7,5.7c0,3.2,2.6,5.7,5.7,5.7c3.2,0,5.7-2.6,5.7-5.7
			C131.6,618.6,129,616,125.8,616"/>
		<path class="st0" d="M79.9,478.3c-3.2,0-5.7,2.6-5.7,5.7c0,3.2,2.6,5.7,5.7,5.7c3.2,0,5.7-2.6,5.7-5.7
			C85.7,480.8,83.1,478.3,79.9,478.3"/>
		<path class="st0" d="M424.4,639c-3.2,0-5.7,2.6-5.7,5.7c0,3.2,2.6,5.7,5.7,5.7c3.2,0,5.7-2.6,5.7-5.7
			C430.1,641.6,427.5,639,424.4,639"/>
		<path class="st0" d="M263.6,639c-3.2,0-5.7,2.6-5.7,5.7c0,3.2,2.6,5.7,5.7,5.7c3.2,0,5.7-2.6,5.7-5.7
			C269.4,641.6,266.8,639,263.6,639"/>
		<path class="st2" d="M453.1,507c0,3.2-2.6,5.7-5.7,5.7c-3.2,0-5.7-2.6-5.7-5.7c0-3.2,2.6-5.7,5.7-5.7
			C450.5,501.2,453.1,503.8,453.1,507"/>
		<path class="st2" d="M453.1,415.1c0,3.2-2.6,5.7-5.7,5.7c-3.2,0-5.7-2.6-5.7-5.7c0-3.2,2.6-5.7,5.7-5.7
			C450.5,409.4,453.1,411.9,453.1,415.1"/>
		<path class="st2" d="M447.3,202.7c-3.2,0-5.7,2.6-5.7,5.7c0,3.2,2.6,5.7,5.7,5.7c3.2,0,5.7-2.6,5.7-5.7
			C453.1,205.3,450.5,202.7,447.3,202.7"/>
		<path class="st2" d="M453.1,162.5c0,3.2-2.6,5.7-5.7,5.7c-3.2,0-5.7-2.6-5.7-5.7c0-3.2,2.6-5.7,5.7-5.7
			C450.5,156.8,453.1,159.3,453.1,162.5"/>
		<path class="st2" d="M424.4,432.3c-3.2,0-5.7,2.6-5.7,5.7c0,3.2,2.6,5.7,5.7,5.7c3.2,0,5.7-2.6,5.7-5.7
			C430.1,434.9,427.5,432.3,424.4,432.3"/>
		<path class="st2" d="M424.4,294.6c-3.2,0-5.7,2.6-5.7,5.7c0,3.2,2.6,5.7,5.7,5.7c3.2,0,5.7-2.6,5.7-5.7
			C430.1,297.1,427.5,294.6,424.4,294.6"/>
		<path class="st2" d="M430.1,231.4c0,3.2-2.6,5.7-5.7,5.7c-3.2,0-5.7-2.6-5.7-5.7c0-3.2,2.6-5.7,5.7-5.7
			C427.5,225.7,430.1,228.2,430.1,231.4"/>
		<path class="st2" d="M407.1,598.8c0,3.2-2.6,5.7-5.7,5.7c-3.2,0-5.7-2.6-5.7-5.7c0-3.2,2.6-5.7,5.7-5.7
			C404.6,593.1,407.1,595.6,407.1,598.8"/>
		<path class="st2" d="M407.1,484c0,3.2-2.6,5.7-5.7,5.7c-3.2,0-5.7-2.6-5.7-5.7s2.6-5.7,5.7-5.7C404.6,478.3,407.1,480.8,407.1,484
			"/>
		<path class="st2" d="M384.2,461c0,3.2-2.6,5.7-5.7,5.7c-3.2,0-5.7-2.6-5.7-5.7c0-3.2,2.6-5.7,5.7-5.7
			C381.6,455.3,384.2,457.9,384.2,461"/>
		<path class="st2" d="M384.2,369.2c0,3.2-2.6,5.7-5.7,5.7c-3.2,0-5.7-2.6-5.7-5.7c0-3.2,2.6-5.7,5.7-5.7
			C381.6,363.4,384.2,366,384.2,369.2"/>
		<path class="st2" d="M378.4,179.7c-3.2,0-5.7,2.6-5.7,5.7c0,3.2,2.6,5.7,5.7,5.7c3.2,0,5.7-2.6,5.7-5.7
			C384.2,182.3,381.6,179.7,378.4,179.7"/>
		<path class="st2" d="M361.2,529.9c0,3.2-2.6,5.7-5.7,5.7c-3.2,0-5.7-2.6-5.7-5.7s2.6-5.7,5.7-5.7
			C358.6,524.2,361.2,526.8,361.2,529.9"/>
		<path class="st2" d="M355.5,386.4c-3.2,0-5.7,2.6-5.7,5.7c0,3.2,2.6,5.7,5.7,5.7c3.2,0,5.7-2.6,5.7-5.7
			C361.2,389,358.6,386.4,355.5,386.4"/>
		<path class="st2" d="M332.5,616c-3.2,0-5.7,2.6-5.7,5.7c0,3.2,2.6,5.7,5.7,5.7c3.2,0,5.7-2.6,5.7-5.7
			C338.3,618.6,335.7,616,332.5,616"/>
		<path class="st2" d="M338.3,507c0,3.2-2.6,5.7-5.7,5.7c-3.2,0-5.7-2.6-5.7-5.7c0-3.2,2.6-5.7,5.7-5.7
			C335.7,501.2,338.3,503.8,338.3,507"/>
		<path class="st2" d="M332.5,225.7c-3.2,0-5.7,2.6-5.7,5.7c0,3.2,2.6,5.7,5.7,5.7c3.2,0,5.7-2.6,5.7-5.7
			C338.3,228.2,335.7,225.7,332.5,225.7"/>
		<path class="st2" d="M315.3,484c0,3.2-2.6,5.7-5.7,5.7c-3.2,0-5.7-2.6-5.7-5.7s2.6-5.7,5.7-5.7C312.7,478.3,315.3,480.8,315.3,484
			"/>
		<path class="st2" d="M286.6,593.1c-3.2,0-5.7,2.6-5.7,5.7c0,3.2,2.6,5.7,5.7,5.7c3.2,0,5.7-2.6,5.7-5.7
			C292.3,595.6,289.8,593.1,286.6,593.1"/>
		<path class="st2" d="M286.6,524.2c-3.2,0-5.7,2.6-5.7,5.7c0,3.2,2.6,5.7,5.7,5.7c3.2,0,5.7-2.6,5.7-5.7
			C292.3,526.8,289.8,524.2,286.6,524.2"/>
		<path class="st2" d="M286.6,386.4c-3.2,0-5.7,2.6-5.7,5.7c0,3.2,2.6,5.7,5.7,5.7c3.2,0,5.7-2.6,5.7-5.7
			C292.3,389,289.8,386.4,286.6,386.4"/>
		<path class="st2" d="M240.7,547.1c-3.2,0-5.7,2.6-5.7,5.7c0,3.2,2.6,5.7,5.7,5.7c3.2,0,5.7-2.6,5.7-5.7
			C246.4,549.7,243.8,547.1,240.7,547.1"/>
		<path class="st2" d="M217.7,294.6c-3.2,0-5.7,2.6-5.7,5.7c0,3.2,2.6,5.7,5.7,5.7c3.2,0,5.7-2.6,5.7-5.7
			C223.4,297.1,220.9,294.6,217.7,294.6"/>
		<path class="st2" d="M148.8,570.1c-3.2,0-5.7,2.6-5.7,5.7c0,3.2,2.6,5.7,5.7,5.7c3.2,0,5.7-2.6,5.7-5.7
			C154.5,572.7,152,570.1,148.8,570.1"/>
		<path class="st2" d="M148.8,501.2c-3.2,0-5.7,2.6-5.7,5.7c0,3.2,2.6,5.7,5.7,5.7c3.2,0,5.7-2.6,5.7-5.7
			C154.5,503.8,152,501.2,148.8,501.2"/>
		<path class="st2" d="M154.5,461c0,3.2-2.6,5.7-5.7,5.7c-3.2,0-5.7-2.6-5.7-5.7c0-3.2,2.6-5.7,5.7-5.7
			C152,455.3,154.5,457.9,154.5,461"/>
		<path class="st2" d="M148.8,363.4c-3.2,0-5.7,2.6-5.7,5.7c0,3.2,2.6,5.7,5.7,5.7c3.2,0,5.7-2.6,5.7-5.7
			C154.5,366,152,363.4,148.8,363.4"/>
		<path class="st2" d="M154.5,300.3c0,3.2-2.6,5.7-5.7,5.7c-3.2,0-5.7-2.6-5.7-5.7c0-3.2,2.6-5.7,5.7-5.7
			C152,294.6,154.5,297.1,154.5,300.3"/>
		<path class="st2" d="M131.6,575.9c0,3.2-2.6,5.7-5.7,5.7c-3.2,0-5.7-2.6-5.7-5.7c0-3.2,2.6-5.7,5.7-5.7
			C129,570.1,131.6,572.7,131.6,575.9"/>
		<path class="st2" d="M125.8,524.2c-3.2,0-5.7,2.6-5.7,5.7c0,3.2,2.6,5.7,5.7,5.7c3.2,0,5.7-2.6,5.7-5.7
			C131.6,526.8,129,524.2,125.8,524.2"/>
		<path class="st2" d="M125.8,409.4c-3.2,0-5.7,2.6-5.7,5.7c0,3.2,2.6,5.7,5.7,5.7c3.2,0,5.7-2.6,5.7-5.7
			C131.6,411.9,129,409.4,125.8,409.4"/>
		<path class="st2" d="M246.4,644.7c0,3.2-2.6,5.7-5.7,5.7c-3.2,0-5.7-2.6-5.7-5.7c0-3.2,2.6-5.7,5.7-5.7
			C243.8,639,246.4,641.6,246.4,644.7"/>
		<path class="st3" d="M453.1,575.9c0,3.2-2.6,5.7-5.7,5.7c-3.2,0-5.7-2.6-5.7-5.7c0-3.2,2.6-5.7,5.7-5.7
			C450.5,570.1,453.1,572.7,453.1,575.9"/>
		<path class="st3" d="M453.1,277.3c0,3.2-2.6,5.7-5.7,5.7c-3.2,0-5.7-2.6-5.7-5.7c0-3.2,2.6-5.7,5.7-5.7
			C450.5,271.6,453.1,274.2,453.1,277.3"/>
		<path class="st3" d="M430.1,598.8c0,3.2-2.6,5.7-5.7,5.7c-3.2,0-5.7-2.6-5.7-5.7c0-3.2,2.6-5.7,5.7-5.7
			C427.5,593.1,430.1,595.6,430.1,598.8"/>
		<path class="st3" d="M424.4,501.2c-3.2,0-5.7,2.6-5.7,5.7c0,3.2,2.6,5.7,5.7,5.7c3.2,0,5.7-2.6,5.7-5.7
			C430.1,503.8,427.5,501.2,424.4,501.2"/>
		<path class="st3" d="M424.4,386.4c-3.2,0-5.7,2.6-5.7,5.7c0,3.2,2.6,5.7,5.7,5.7c3.2,0,5.7-2.6,5.7-5.7
			C430.1,389,427.5,386.4,424.4,386.4"/>
		<path class="st3" d="M384.2,621.8c0,3.2-2.6,5.7-5.7,5.7c-3.2,0-5.7-2.6-5.7-5.7s2.6-5.7,5.7-5.7
			C381.6,616,384.2,618.6,384.2,621.8"/>
		<path class="st3" d="M384.2,231.4c0,3.2-2.6,5.7-5.7,5.7c-3.2,0-5.7-2.6-5.7-5.7c0-3.2,2.6-5.7,5.7-5.7
			C381.6,225.7,384.2,228.2,384.2,231.4"/>
		<path class="st3" d="M361.2,621.8c0,3.2-2.6,5.7-5.7,5.7c-3.2,0-5.7-2.6-5.7-5.7s2.6-5.7,5.7-5.7
			C358.6,616,361.2,618.6,361.2,621.8"/>
		<path class="st3" d="M355.5,593.1c-3.2,0-5.7,2.6-5.7,5.7c0,3.2,2.6,5.7,5.7,5.7c3.2,0,5.7-2.6,5.7-5.7
			C361.2,595.6,358.6,593.1,355.5,593.1"/>
		<path class="st3" d="M355.5,501.2c-3.2,0-5.7,2.6-5.7,5.7c0,3.2,2.6,5.7,5.7,5.7c3.2,0,5.7-2.6,5.7-5.7
			C361.2,503.8,358.6,501.2,355.5,501.2"/>
		<path class="st3" d="M361.2,323.3c0,3.2-2.6,5.7-5.7,5.7c-3.2,0-5.7-2.6-5.7-5.7c0-3.2,2.6-5.7,5.7-5.7
			C358.6,317.5,361.2,320.1,361.2,323.3"/>
		<path class="st3" d="M338.3,277.3c0,3.2-2.6,5.7-5.7,5.7c-3.2,0-5.7-2.6-5.7-5.7c0-3.2,2.6-5.7,5.7-5.7
			C335.7,271.6,338.3,274.2,338.3,277.3"/>
		<path class="st3" d="M315.3,552.9c0,3.2-2.6,5.7-5.7,5.7c-3.2,0-5.7-2.6-5.7-5.7c0-3.2,2.6-5.7,5.7-5.7
			C312.7,547.1,315.3,549.7,315.3,552.9"/>
		<path class="st3" d="M315.3,369.2c0,3.2-2.6,5.7-5.7,5.7c-3.2,0-5.7-2.6-5.7-5.7c0-3.2,2.6-5.7,5.7-5.7
			C312.7,363.4,315.3,366,315.3,369.2"/>
		<path class="st3" d="M292.3,621.8c0,3.2-2.6,5.7-5.7,5.7c-3.2,0-5.7-2.6-5.7-5.7s2.6-5.7,5.7-5.7
			C289.8,616,292.3,618.6,292.3,621.8"/>
		<path class="st3" d="M292.3,461c0,3.2-2.6,5.7-5.7,5.7c-3.2,0-5.7-2.6-5.7-5.7c0-3.2,2.6-5.7,5.7-5.7
			C289.8,455.3,292.3,457.9,292.3,461"/>
		<path class="st3" d="M263.6,501.2c-3.2,0-5.7,2.6-5.7,5.7c0,3.2,2.6,5.7,5.7,5.7c3.2,0,5.7-2.6,5.7-5.7
			C269.4,503.8,266.8,501.2,263.6,501.2"/>
		<path class="st3" d="M269.4,277.3c0,3.2-2.6,5.7-5.7,5.7c-3.2,0-5.7-2.6-5.7-5.7c0-3.2,2.6-5.7,5.7-5.7
			C266.8,271.6,269.4,274.2,269.4,277.3"/>
		<path class="st3" d="M217.7,616c-3.2,0-5.7,2.6-5.7,5.7c0,3.2,2.6,5.7,5.7,5.7c3.2,0,5.7-2.6,5.7-5.7
			C223.4,618.6,220.9,616,217.7,616"/>
		<path class="st3" d="M217.7,455.3c-3.2,0-5.7,2.6-5.7,5.7c0,3.2,2.6,5.7,5.7,5.7c3.2,0,5.7-2.6,5.7-5.7
			C223.4,457.9,220.9,455.3,217.7,455.3"/>
		<path class="st3" d="M194.7,386.4c-3.2,0-5.7,2.6-5.7,5.7c0,3.2,2.6,5.7,5.7,5.7c3.2,0,5.7-2.6,5.7-5.7
			C200.5,389,197.9,386.4,194.7,386.4"/>
		<path class="st3" d="M171.8,593.1c-3.2,0-5.7,2.6-5.7,5.7c0,3.2,2.6,5.7,5.7,5.7c3.2,0,5.7-2.6,5.7-5.7
			C177.5,595.6,174.9,593.1,171.8,593.1"/>
		<path class="st3" d="M177.5,552.9c0,3.2-2.6,5.7-5.7,5.7c-3.2,0-5.7-2.6-5.7-5.7c0-3.2,2.6-5.7,5.7-5.7
			C174.9,547.1,177.5,549.7,177.5,552.9"/>
		<path class="st3" d="M177.5,507c0,3.2-2.6,5.7-5.7,5.7c-3.2,0-5.7-2.6-5.7-5.7c0-3.2,2.6-5.7,5.7-5.7
			C174.9,501.2,177.5,503.8,177.5,507"/>
		<path class="st3" d="M148.8,616c-3.2,0-5.7,2.6-5.7,5.7c0,3.2,2.6,5.7,5.7,5.7c3.2,0,5.7-2.6,5.7-5.7
			C154.5,618.6,152,616,148.8,616"/>
		<path class="st3" d="M407.1,644.7c0,3.2-2.6,5.7-5.7,5.7c-3.2,0-5.7-2.6-5.7-5.7c0-3.2,2.6-5.7,5.7-5.7
			C404.6,639,407.1,641.6,407.1,644.7"/>
		<path class="st3" d="M217.7,639c-3.2,0-5.7,2.6-5.7,5.7c0,3.2,2.6,5.7,5.7,5.7c3.2,0,5.7-2.6,5.7-5.7
			C223.4,641.6,220.9,639,217.7,639"/>
		<path class="st3" d="M177.5,644.7c0,3.2-2.6,5.7-5.7,5.7c-3.2,0-5.7-2.6-5.7-5.7c0-3.2,2.6-5.7,5.7-5.7
			C174.9,639,177.5,641.6,177.5,644.7"/>
		<path class="st1" d="M453.1,621.8c0,3.2-2.6,5.7-5.7,5.7c-3.2,0-5.7-2.6-5.7-5.7s2.6-5.7,5.7-5.7
			C450.5,616,453.1,618.6,453.1,621.8"/>
		<path class="st1" d="M447.3,593.1c-3.2,0-5.7,2.6-5.7,5.7c0,3.2,2.6,5.7,5.7,5.7c3.2,0,5.7-2.6,5.7-5.7
			C453.1,595.6,450.5,593.1,447.3,593.1"/>
		<path class="st1" d="M447.3,524.2c-3.2,0-5.7,2.6-5.7,5.7c0,3.2,2.6,5.7,5.7,5.7c3.2,0,5.7-2.6,5.7-5.7
			C453.1,526.8,450.5,524.2,447.3,524.2"/>
		<path class="st1" d="M424.4,616c-3.2,0-5.7,2.6-5.7,5.7c0,3.2,2.6,5.7,5.7,5.7c3.2,0,5.7-2.6,5.7-5.7
			C430.1,618.6,427.5,616,424.4,616"/>
		<path class="st1" d="M430.1,461c0,3.2-2.6,5.7-5.7,5.7c-3.2,0-5.7-2.6-5.7-5.7c0-3.2,2.6-5.7,5.7-5.7
			C427.5,455.3,430.1,457.9,430.1,461"/>
		<path class="st1" d="M401.4,524.2c-3.2,0-5.7,2.6-5.7,5.7c0,3.2,2.6,5.7,5.7,5.7c3.2,0,5.7-2.6,5.7-5.7
			C407.1,526.8,404.6,524.2,401.4,524.2"/>
		<path class="st1" d="M355.5,547.1c-3.2,0-5.7,2.6-5.7,5.7c0,3.2,2.6,5.7,5.7,5.7c3.2,0,5.7-2.6,5.7-5.7
			C361.2,549.7,358.6,547.1,355.5,547.1"/>
		<path class="st1" d="M361.2,438.1c0,3.2-2.6,5.7-5.7,5.7c-3.2,0-5.7-2.6-5.7-5.7c0-3.2,2.6-5.7,5.7-5.7
			C358.6,432.3,361.2,434.9,361.2,438.1"/>
		<path class="st1" d="M338.3,575.9c0,3.2-2.6,5.7-5.7,5.7c-3.2,0-5.7-2.6-5.7-5.7c0-3.2,2.6-5.7,5.7-5.7
			C335.7,570.1,338.3,572.7,338.3,575.9"/>
		<path class="st1" d="M309.5,524.2c-3.2,0-5.7,2.6-5.7,5.7c0,3.2,2.6,5.7,5.7,5.7c3.2,0,5.7-2.6,5.7-5.7
			C315.3,526.8,312.7,524.2,309.5,524.2"/>
		<path class="st1" d="M269.4,575.9c0,3.2-2.6,5.7-5.7,5.7c-3.2,0-5.7-2.6-5.7-5.7c0-3.2,2.6-5.7,5.7-5.7
			C266.8,570.1,269.4,572.7,269.4,575.9"/>
		<path class="st1" d="M263.6,547.1c-3.2,0-5.7,2.6-5.7,5.7c0,3.2,2.6,5.7,5.7,5.7c3.2,0,5.7-2.6,5.7-5.7
			C269.4,549.7,266.8,547.1,263.6,547.1"/>
		<path class="st1" d="M269.4,529.9c0,3.2-2.6,5.7-5.7,5.7c-3.2,0-5.7-2.6-5.7-5.7s2.6-5.7,5.7-5.7
			C266.8,524.2,269.4,526.8,269.4,529.9"/>
		<path class="st1" d="M263.6,340.5c-3.2,0-5.7,2.6-5.7,5.7c0,3.2,2.6,5.7,5.7,5.7c3.2,0,5.7-2.6,5.7-5.7
			C269.4,343,266.8,340.5,263.6,340.5"/>
		<path class="st1" d="M246.4,598.8c0,3.2-2.6,5.7-5.7,5.7c-3.2,0-5.7-2.6-5.7-5.7c0-3.2,2.6-5.7,5.7-5.7
			C243.8,593.1,246.4,595.6,246.4,598.8"/>
		<path class="st1" d="M246.4,484c0,3.2-2.6,5.7-5.7,5.7c-3.2,0-5.7-2.6-5.7-5.7s2.6-5.7,5.7-5.7C243.8,478.3,246.4,480.8,246.4,484
			"/>
		<path class="st1" d="M223.4,392.1c0,3.2-2.6,5.7-5.7,5.7c-3.2,0-5.7-2.6-5.7-5.7c0-3.2,2.6-5.7,5.7-5.7
			C220.9,386.4,223.4,389,223.4,392.1"/>
		<path class="st1" d="M194.7,478.3c-3.2,0-5.7,2.6-5.7,5.7c0,3.2,2.6,5.7,5.7,5.7c3.2,0,5.7-2.6,5.7-5.7
			C200.5,480.8,197.9,478.3,194.7,478.3"/>
		<path class="st1" d="M177.5,438.1c0,3.2-2.6,5.7-5.7,5.7c-3.2,0-5.7-2.6-5.7-5.7c0-3.2,2.6-5.7,5.7-5.7
			C174.9,432.3,177.5,434.9,177.5,438.1"/>
		<path class="st1" d="M102.9,593.1c-3.2,0-5.7,2.6-5.7,5.7c0,3.2,2.6,5.7,5.7,5.7c3.2,0,5.7-2.6,5.7-5.7
			C108.6,595.6,106,593.1,102.9,593.1"/>
		<path class="st1" d="M108.6,369.2c0,3.2-2.6,5.7-5.7,5.7c-3.2,0-5.7-2.6-5.7-5.7c0-3.2,2.6-5.7,5.7-5.7
			C106,363.4,108.6,366,108.6,369.2"/>
		<path class="st1" d="M79.9,593.1c-3.2,0-5.7,2.6-5.7,5.7c0,3.2,2.6,5.7,5.7,5.7c3.2,0,5.7-2.6,5.7-5.7
			C85.7,595.6,83.1,593.1,79.9,593.1"/>
		<path class="st1" d="M378.4,639c-3.2,0-5.7,2.6-5.7,5.7c0,3.2,2.6,5.7,5.7,5.7c3.2,0,5.7-2.6,5.7-5.7
			C384.2,641.6,381.6,639,378.4,639"/>
		<path class="st1" d="M148.8,639c-3.2,0-5.7,2.6-5.7,5.7c0,3.2,2.6,5.7,5.7,5.7c3.2,0,5.7-2.6,5.7-5.7
			C154.5,641.6,152,639,148.8,639"/>
		<path class="st4" d="M447.3,639c-3.2,0-5.7,2.6-5.7,5.7c0,3.2,2.6,5.7,5.7,5.7c3.2,0,5.7-2.6,5.7-5.7
			C453.1,641.6,450.5,639,447.3,639"/>
		<path class="st4" d="M447.3,478.3c-3.2,0-5.7,2.6-5.7,5.7c0,3.2,2.6,5.7,5.7,5.7c3.2,0,5.7-2.6,5.7-5.7
			C453.1,480.8,450.5,478.3,447.3,478.3"/>
		<path class="st4" d="M447.3,340.5c-3.2,0-5.7,2.6-5.7,5.7c0,3.2,2.6,5.7,5.7,5.7c3.2,0,5.7-2.6,5.7-5.7
			C453.1,343,450.5,340.5,447.3,340.5"/>
		<path class="st4" d="M424.4,570.1c-3.2,0-5.7,2.6-5.7,5.7c0,3.2,2.6,5.7,5.7,5.7c3.2,0,5.7-2.6,5.7-5.7
			C430.1,572.7,427.5,570.1,424.4,570.1"/>
		<path class="st4" d="M430.1,552.9c0,3.2-2.6,5.7-5.7,5.7c-3.2,0-5.7-2.6-5.7-5.7c0-3.2,2.6-5.7,5.7-5.7
			C427.5,547.1,430.1,549.7,430.1,552.9"/>
		<path class="st4" d="M430.1,415.1c0,3.2-2.6,5.7-5.7,5.7c-3.2,0-5.7-2.6-5.7-5.7c0-3.2,2.6-5.7,5.7-5.7
			C427.5,409.4,430.1,411.9,430.1,415.1"/>
		<path class="st4" d="M430.1,346.2c0,3.2-2.6,5.7-5.7,5.7c-3.2,0-5.7-2.6-5.7-5.7c0-3.2,2.6-5.7,5.7-5.7
			C427.5,340.5,430.1,343,430.1,346.2"/>
		<path class="st4" d="M401.4,616c-3.2,0-5.7,2.6-5.7,5.7c0,3.2,2.6,5.7,5.7,5.7c3.2,0,5.7-2.6,5.7-5.7
			C407.1,618.6,404.6,616,401.4,616"/>
		<path class="st4" d="M401.4,570.1c-3.2,0-5.7,2.6-5.7,5.7c0,3.2,2.6,5.7,5.7,5.7c3.2,0,5.7-2.6,5.7-5.7
			C407.1,572.7,404.6,570.1,401.4,570.1"/>
		<path class="st4" d="M407.1,552.9c0,3.2-2.6,5.7-5.7,5.7c-3.2,0-5.7-2.6-5.7-5.7c0-3.2,2.6-5.7,5.7-5.7
			C404.6,547.1,407.1,549.7,407.1,552.9"/>
		<path class="st4" d="M407.1,392.1c0,3.2-2.6,5.7-5.7,5.7c-3.2,0-5.7-2.6-5.7-5.7c0-3.2,2.6-5.7,5.7-5.7
			C404.6,386.4,407.1,389,407.1,392.1"/>
		<path class="st4" d="M401.4,340.5c-3.2,0-5.7,2.6-5.7,5.7c0,3.2,2.6,5.7,5.7,5.7c3.2,0,5.7-2.6,5.7-5.7
			C407.1,343,404.6,340.5,401.4,340.5"/>
		<path class="st4" d="M407.1,323.3c0,3.2-2.6,5.7-5.7,5.7c-3.2,0-5.7-2.6-5.7-5.7c0-3.2,2.6-5.7,5.7-5.7
			C404.6,317.5,407.1,320.1,407.1,323.3"/>
		<path class="st4" d="M384.2,575.9c0,3.2-2.6,5.7-5.7,5.7c-3.2,0-5.7-2.6-5.7-5.7c0-3.2,2.6-5.7,5.7-5.7
			C381.6,570.1,384.2,572.7,384.2,575.9"/>
		<path class="st4" d="M378.4,478.3c-3.2,0-5.7,2.6-5.7,5.7c0,3.2,2.6,5.7,5.7,5.7c3.2,0,5.7-2.6,5.7-5.7
			C384.2,480.8,381.6,478.3,378.4,478.3"/>
		<path class="st4" d="M378.4,409.4c-3.2,0-5.7,2.6-5.7,5.7c0,3.2,2.6,5.7,5.7,5.7c3.2,0,5.7-2.6,5.7-5.7
			C384.2,411.9,381.6,409.4,378.4,409.4"/>
		<path class="st4" d="M378.4,294.6c-3.2,0-5.7,2.6-5.7,5.7c0,3.2,2.6,5.7,5.7,5.7c3.2,0,5.7-2.6,5.7-5.7
			C384.2,297.1,381.6,294.6,378.4,294.6"/>
		<path class="st4" d="M361.2,575.9c0,3.2-2.6,5.7-5.7,5.7c-3.2,0-5.7-2.6-5.7-5.7c0-3.2,2.6-5.7,5.7-5.7
			C358.6,570.1,361.2,572.7,361.2,575.9"/>
		<path class="st4" d="M332.5,524.2c-3.2,0-5.7,2.6-5.7,5.7c0,3.2,2.6,5.7,5.7,5.7c3.2,0,5.7-2.6,5.7-5.7
			C338.3,526.8,335.7,524.2,332.5,524.2"/>
		<path class="st4" d="M338.3,438.1c0,3.2-2.6,5.7-5.7,5.7c-3.2,0-5.7-2.6-5.7-5.7c0-3.2,2.6-5.7,5.7-5.7
			C335.7,432.3,338.3,434.9,338.3,438.1"/>
		<path class="st4" d="M332.5,409.4c-3.2,0-5.7,2.6-5.7,5.7c0,3.2,2.6,5.7,5.7,5.7c3.2,0,5.7-2.6,5.7-5.7
			C338.3,411.9,335.7,409.4,332.5,409.4"/>
		<path class="st4" d="M338.3,392.1c0,3.2-2.6,5.7-5.7,5.7c-3.2,0-5.7-2.6-5.7-5.7c0-3.2,2.6-5.7,5.7-5.7
			C335.7,386.4,338.3,389,338.3,392.1"/>
		<path class="st4" d="M332.5,340.5c-3.2,0-5.7,2.6-5.7,5.7c0,3.2,2.6,5.7,5.7,5.7c3.2,0,5.7-2.6,5.7-5.7
			C338.3,343,335.7,340.5,332.5,340.5"/>
		<path class="st4" d="M315.3,598.8c0,3.2-2.6,5.7-5.7,5.7c-3.2,0-5.7-2.6-5.7-5.7c0-3.2,2.6-5.7,5.7-5.7
			C312.7,593.1,315.3,595.6,315.3,598.8"/>
		<path class="st4" d="M309.5,570.1c-3.2,0-5.7,2.6-5.7,5.7c0,3.2,2.6,5.7,5.7,5.7c3.2,0,5.7-2.6,5.7-5.7
			C315.3,572.7,312.7,570.1,309.5,570.1"/>
		<path class="st4" d="M309.5,409.4c-3.2,0-5.7,2.6-5.7,5.7c0,3.2,2.6,5.7,5.7,5.7c3.2,0,5.7-2.6,5.7-5.7
			C315.3,411.9,312.7,409.4,309.5,409.4"/>
		<path class="st4" d="M292.3,575.9c0,3.2-2.6,5.7-5.7,5.7c-3.2,0-5.7-2.6-5.7-5.7c0-3.2,2.6-5.7,5.7-5.7
			C289.8,570.1,292.3,572.7,292.3,575.9"/>
		<path class="st4" d="M292.3,507c0,3.2-2.6,5.7-5.7,5.7c-3.2,0-5.7-2.6-5.7-5.7c0-3.2,2.6-5.7,5.7-5.7
			C289.8,501.2,292.3,503.8,292.3,507"/>
		<path class="st4" d="M286.6,478.3c-3.2,0-5.7,2.6-5.7,5.7c0,3.2,2.6,5.7,5.7,5.7c3.2,0,5.7-2.6,5.7-5.7
			C292.3,480.8,289.8,478.3,286.6,478.3"/>
		<path class="st4" d="M292.3,231.4c0,3.2-2.6,5.7-5.7,5.7c-3.2,0-5.7-2.6-5.7-5.7c0-3.2,2.6-5.7,5.7-5.7
			C289.8,225.7,292.3,228.2,292.3,231.4"/>
		<path class="st4" d="M263.6,593.1c-3.2,0-5.7,2.6-5.7,5.7c0,3.2,2.6,5.7,5.7,5.7c3.2,0,5.7-2.6,5.7-5.7
			C269.4,595.6,266.8,593.1,263.6,593.1"/>
		<path class="st4" d="M269.4,438.1c0,3.2-2.6,5.7-5.7,5.7c-3.2,0-5.7-2.6-5.7-5.7c0-3.2,2.6-5.7,5.7-5.7
			C266.8,432.3,269.4,434.9,269.4,438.1"/>
		<path class="st4" d="M240.7,616c-3.2,0-5.7,2.6-5.7,5.7c0,3.2,2.6,5.7,5.7,5.7c3.2,0,5.7-2.6,5.7-5.7
			C246.4,618.6,243.8,616,240.7,616"/>
		<path class="st4" d="M240.7,409.4c-3.2,0-5.7,2.6-5.7,5.7c0,3.2,2.6,5.7,5.7,5.7c3.2,0,5.7-2.6,5.7-5.7
			C246.4,411.9,243.8,409.4,240.7,409.4"/>
		<path class="st4" d="M246.4,346.2c0,3.2-2.6,5.7-5.7,5.7c-3.2,0-5.7-2.6-5.7-5.7c0-3.2,2.6-5.7,5.7-5.7
			C243.8,340.5,246.4,343,246.4,346.2"/>
		<path class="st4" d="M223.4,575.9c0,3.2-2.6,5.7-5.7,5.7c-3.2,0-5.7-2.6-5.7-5.7c0-3.2,2.6-5.7,5.7-5.7
			C220.9,570.1,223.4,572.7,223.4,575.9"/>
		<path class="st4" d="M217.7,524.2c-3.2,0-5.7,2.6-5.7,5.7c0,3.2,2.6,5.7,5.7,5.7c3.2,0,5.7-2.6,5.7-5.7
			C223.4,526.8,220.9,524.2,217.7,524.2"/>
		<path class="st4" d="M223.4,507c0,3.2-2.6,5.7-5.7,5.7c-3.2,0-5.7-2.6-5.7-5.7c0-3.2,2.6-5.7,5.7-5.7
			C220.9,501.2,223.4,503.8,223.4,507"/>
		<path class="st4" d="M200.5,621.8c0,3.2-2.6,5.7-5.7,5.7c-3.2,0-5.7-2.6-5.7-5.7s2.6-5.7,5.7-5.7
			C197.9,616,200.5,618.6,200.5,621.8"/>
		<path class="st4" d="M194.7,593.1c-3.2,0-5.7,2.6-5.7,5.7c0,3.2,2.6,5.7,5.7,5.7c3.2,0,5.7-2.6,5.7-5.7
			C200.5,595.6,197.9,593.1,194.7,593.1"/>
		<path class="st4" d="M200.5,575.9c0,3.2-2.6,5.7-5.7,5.7c-3.2,0-5.7-2.6-5.7-5.7c0-3.2,2.6-5.7,5.7-5.7
			C197.9,570.1,200.5,572.7,200.5,575.9"/>
		<path class="st4" d="M194.7,547.1c-3.2,0-5.7,2.6-5.7,5.7c0,3.2,2.6,5.7,5.7,5.7c3.2,0,5.7-2.6,5.7-5.7
			C200.5,549.7,197.9,547.1,194.7,547.1"/>
		<path class="st4" d="M200.5,529.9c0,3.2-2.6,5.7-5.7,5.7c-3.2,0-5.7-2.6-5.7-5.7s2.6-5.7,5.7-5.7
			C197.9,524.2,200.5,526.8,200.5,529.9"/>
		<path class="st4" d="M200.5,461c0,3.2-2.6,5.7-5.7,5.7c-3.2,0-5.7-2.6-5.7-5.7c0-3.2,2.6-5.7,5.7-5.7
			C197.9,455.3,200.5,457.9,200.5,461"/>
		<path class="st4" d="M200.5,323.3c0,3.2-2.6,5.7-5.7,5.7c-3.2,0-5.7-2.6-5.7-5.7c0-3.2,2.6-5.7,5.7-5.7
			C197.9,317.5,200.5,320.1,200.5,323.3"/>
		<path class="st4" d="M171.8,524.2c-3.2,0-5.7,2.6-5.7,5.7c0,3.2,2.6,5.7,5.7,5.7c3.2,0,5.7-2.6,5.7-5.7
			C177.5,526.8,174.9,524.2,171.8,524.2"/>
		<path class="st4" d="M154.5,598.8c0,3.2-2.6,5.7-5.7,5.7c-3.2,0-5.7-2.6-5.7-5.7c0-3.2,2.6-5.7,5.7-5.7
			C152,593.1,154.5,595.6,154.5,598.8"/>
		<path class="st4" d="M154.5,552.9c0,3.2-2.6,5.7-5.7,5.7c-3.2,0-5.7-2.6-5.7-5.7c0-3.2,2.6-5.7,5.7-5.7
			C152,547.1,154.5,549.7,154.5,552.9"/>
		<path class="st4" d="M131.6,484c0,3.2-2.6,5.7-5.7,5.7c-3.2,0-5.7-2.6-5.7-5.7s2.6-5.7,5.7-5.7C129,478.3,131.6,480.8,131.6,484"
			/>
		<path class="st4" d="M108.6,621.8c0,3.2-2.6,5.7-5.7,5.7c-3.2,0-5.7-2.6-5.7-5.7s2.6-5.7,5.7-5.7C106,616,108.6,618.6,108.6,621.8
			"/>
		<path class="st4" d="M108.6,552.9c0,3.2-2.6,5.7-5.7,5.7c-3.2,0-5.7-2.6-5.7-5.7c0-3.2,2.6-5.7,5.7-5.7
			C106,547.1,108.6,549.7,108.6,552.9"/>
		<path class="st4" d="M102.9,455.3c-3.2,0-5.7,2.6-5.7,5.7c0,3.2,2.6,5.7,5.7,5.7c3.2,0,5.7-2.6,5.7-5.7
			C108.6,457.9,106,455.3,102.9,455.3"/>
		<path class="st4" d="M85.7,529.9c0,3.2-2.6,5.7-5.7,5.7c-3.2,0-5.7-2.6-5.7-5.7s2.6-5.7,5.7-5.7C83.1,524.2,85.7,526.8,85.7,529.9
			"/>
		<path class="st4" d="M85.7,438.1c0,3.2-2.6,5.7-5.7,5.7c-3.2,0-5.7-2.6-5.7-5.7c0-3.2,2.6-5.7,5.7-5.7
			C83.1,432.3,85.7,434.9,85.7,438.1"/>
		<path class="st4" d="M361.2,644.7c0,3.2-2.6,5.7-5.7,5.7c-3.2,0-5.7-2.6-5.7-5.7c0-3.2,2.6-5.7,5.7-5.7
			C358.6,639,361.2,641.6,361.2,644.7"/>
		<path class="st4" d="M332.5,639c-3.2,0-5.7,2.6-5.7,5.7c0,3.2,2.6,5.7,5.7,5.7c3.2,0,5.7-2.6,5.7-5.7
			C338.3,641.6,335.7,639,332.5,639"/>
		<path class="st4" d="M315.3,644.7c0,3.2-2.6,5.7-5.7,5.7c-3.2,0-5.7-2.6-5.7-5.7c0-3.2,2.6-5.7,5.7-5.7
			C312.7,639,315.3,641.6,315.3,644.7"/>
		<path class="st4" d="M108.6,644.7c0,3.2-2.6,5.7-5.7,5.7c-3.2,0-5.7-2.6-5.7-5.7c0-3.2,2.6-5.7,5.7-5.7
			C106,639,108.6,641.6,108.6,644.7"/>
		<path class="st4" d="M79.9,639c-3.2,0-5.7,2.6-5.7,5.7c0,3.2,2.6,5.7,5.7,5.7c3.2,0,5.7-2.6,5.7-5.7C85.7,641.6,83.1,639,79.9,639
			"/>
	</g>
	<rect class="st5" width="498.9" height="708.7"/>
</g>
</svg>
