<?xml version="1.0" standalone="no"?>
<!DOCTYPE svg PUBLIC "-//W3C//DTD SVG 20010904//EN"
 "http://www.w3.org/TR/2001/REC-SVG-20010904/DTD/svg10.dtd">
<svg version="1.0" xmlns="http://www.w3.org/2000/svg"
 width="201.000000pt" height="201.000000pt" viewBox="0 0 201.000000 201.000000"
 preserveAspectRatio="xMidYMid meet">
<metadata>
Created by potrace 1.11, written by Peter Selinger 2001-2013
</metadata>
<g transform="translate(0.000000,201.000000) scale(0.100000,-0.100000)"
fill="#000000" stroke="none">
<path d="M991 1717 c-9 -23 -15 -26 -36 -21 -27 7 -30 2 -15 -26 8 -15 6 -22
-10 -33 -22 -15 -17 -27 12 -27 14 0 18 -8 18 -32 l0 -31 25 23 c14 13 25 19
25 14 0 -5 9 -15 20 -22 19 -11 20 -10 16 13 -3 18 1 28 17 37 12 6 23 11 25
10 1 -1 5 -2 8 -2 3 0 -4 8 -16 18 -20 16 -21 21 -11 41 12 21 11 22 -15 19
-22 -2 -31 3 -41 22 l-12 24 -10 -27z"/>
<path d="M742 1599 c-12 -19 -15 -20 -37 -5 -45 30 -57 15 -31 -36 36 -69 -6
-178 -114 -292 -58 -60 -101 -125 -100 -151 0 -11 -13 -7 -53 16 -37 21 -39
24 -19 27 32 5 27 21 -5 18 -16 -1 -27 -8 -25 -14 1 -9 -3 -9 -18 0 -21 13
-27 47 -11 63 18 19 17 75 -1 75 -6 0 -9 -3 -6 -6 4 -3 1 -20 -7 -37 -7 -18
-11 -43 -9 -57 4 -25 2 -26 -51 -28 -32 -1 -55 2 -55 8 0 5 -5 10 -11 10 -6 0
-9 -7 -5 -15 3 -8 -3 -19 -12 -25 -13 -8 -5 -10 33 -8 45 3 50 1 53 -20 2 -12
8 -20 13 -17 5 4 6 17 3 30 -3 12 -1 26 4 29 6 4 8 -2 5 -14 -3 -12 0 -20 7
-20 7 0 10 7 6 15 -7 20 16 19 56 -1 l30 -16 -30 -18 c-33 -21 -47 -49 -37
-80 10 -33 25 -23 25 18 0 43 14 62 47 62 26 0 73 -20 74 -32 2 -11 2 -45 0
-60 -1 -7 -50 -29 -109 -48 -103 -32 -108 -35 -108 -61 1 -15 5 -31 10 -36 5
-5 7 -1 3 10 -4 9 -2 17 4 17 6 0 9 7 5 15 -3 9 0 15 9 15 8 0 15 -4 15 -10 0
-5 8 -10 17 -10 13 0 14 3 5 12 -9 9 2 17 49 35 69 26 111 31 91 11 -7 -7 -20
-13 -30 -13 -11 0 -16 -6 -14 -19 3 -17 1 -18 -11 -7 -11 9 -17 9 -22 0 -4 -6
-2 -15 5 -19 8 -5 2 -10 -19 -15 -17 -3 -31 -13 -31 -21 0 -10 -13 -14 -47
-14 -27 0 -59 -3 -73 -7 -25 -6 -25 -6 -6 15 33 37 12 47 -27 13 -20 -18 -42
-31 -49 -28 -7 2 -21 0 -32 -5 -15 -8 -16 -12 -5 -19 23 -14 6 -17 -31 -5 -30
9 -35 16 -35 41 0 23 4 30 20 30 15 0 19 -6 17 -25 -3 -24 -2 -24 15 -7 21 21
8 50 -24 55 -49 7 -70 -61 -31 -98 24 -22 15 -22 316 -22 105 -1 192 -4 192
-7 0 -4 16 -13 35 -20 19 -7 35 -16 35 -21 0 -14 -62 -31 -74 -21 -19 16 -68
22 -63 8 2 -7 13 -13 25 -15 30 -5 27 -14 -8 -34 -25 -14 -30 -15 -30 -3 0 8
-5 15 -11 15 -6 0 -9 -7 -5 -15 4 -11 -2 -15 -21 -15 -26 0 -26 1 -7 15 17 13
17 14 2 15 -10 0 -18 -4 -18 -10 0 -18 -22 -10 -57 20 -34 30 -53 38 -53 22 0
-17 44 -45 105 -67 19 -7 18 -8 -5 -15 -14 -4 -59 -8 -100 -9 -75 -2 -75 -2
-88 29 -13 28 -48 57 -58 47 -3 -2 9 -19 26 -37 31 -33 38 -46 18 -34 -7 4 -8
3 -4 -4 5 -8 -1 -12 -16 -12 -22 -1 -68 -31 -68 -45 0 -12 52 5 78 26 51 40
108 4 66 -42 -14 -16 -15 -19 -2 -19 14 0 37 20 53 49 6 11 4 13 -8 8 -10 -4
-14 -2 -11 7 3 7 25 13 55 15 49 2 50 2 43 -25 -5 -19 -4 -25 5 -20 6 4 9 12
6 17 -4 5 8 12 25 15 21 5 29 11 26 20 -3 8 -1 14 3 14 5 0 16 3 24 6 13 5 13
0 2 -33 -9 -24 -10 -42 -4 -50 6 -6 6 -12 1 -15 -5 -1 -6 -12 -1 -23 7 -19 8
-19 8 3 1 26 7 27 27 8 11 -12 21 -13 46 -4 28 10 30 12 12 19 -10 4 -29 5
-41 2 -17 -4 -23 -1 -23 12 0 9 -5 13 -10 10 -13 -8 -13 14 0 52 7 19 26 38
52 53 l41 23 -7 -29 c-4 -16 -9 -37 -12 -46 -6 -20 11 -25 22 -7 4 7 7 28 8
48 1 32 6 38 46 58 25 12 62 25 83 28 l38 6 -21 -33 c-13 -22 -20 -50 -20 -84
0 -50 -21 -110 -33 -98 -5 6 -2 17 15 45 8 14 -27 39 -53 39 -35 0 -61 -35
-53 -70 3 -14 8 -35 11 -46 5 -20 2 -21 -41 -17 -31 4 -46 2 -46 -6 0 -11 14
-14 62 -14 22 1 27 -4 30 -25 2 -16 13 -32 30 -41 24 -14 37 -13 153 13 69 15
129 26 131 23 3 -3 1 -15 -6 -27 -6 -11 -8 -29 -5 -39 6 -21 -23 -36 -92 -46
-29 -5 -43 -12 -46 -26 -4 -16 -1 -18 21 -13 15 4 49 15 75 26 27 10 52 16 57
13 9 -6 -11 -55 -22 -55 -5 0 -8 -4 -8 -10 0 -5 8 -10 18 -10 12 0 28 18 45
53 l26 52 -6 -39 c-7 -48 3 -55 72 -49 31 2 56 0 60 -6 3 -6 13 -11 21 -11 13
0 12 7 -6 36 -12 19 -20 37 -18 39 2 2 32 -10 66 -26 57 -28 92 -33 92 -11 0
4 -21 14 -47 21 -27 6 -59 20 -72 30 -20 16 -22 20 -10 39 10 17 10 23 0 36
-17 20 -16 20 99 -3 53 -10 107 -17 120 -15 14 1 30 3 35 3 19 2 35 18 39 37
2 11 11 45 20 74 20 67 20 75 0 94 -32 32 -94 14 -94 -27 0 -38 -31 11 -39 62
-4 27 -15 61 -25 75 -20 31 -19 31 71 5 68 -20 73 -24 92 -65 23 -47 41 -64
41 -38 0 10 -12 31 -27 47 l-28 28 30 -11 c79 -28 115 -76 107 -142 -3 -31 -6
-34 -33 -30 -16 2 -37 1 -46 -2 -29 -12 5 -25 38 -16 20 6 29 5 29 -3 0 -25
-18 -39 -45 -35 -16 2 -30 -2 -32 -9 -6 -17 59 -8 72 11 7 8 23 12 43 10 23
-3 32 0 32 11 0 10 -6 12 -17 8 -15 -6 -16 -4 -6 9 7 8 10 18 6 21 -11 12 -23
8 -23 -7 0 -8 -4 -17 -9 -20 -5 -3 -5 12 1 37 5 23 13 44 19 45 13 5 11 20 -3
25 -7 2 -2 2 11 0 17 -3 22 0 18 10 -4 12 4 11 49 -1 30 -9 54 -20 54 -27 0
-14 37 -55 50 -55 16 0 11 15 -12 40 -13 14 -22 28 -21 31 1 4 -18 10 -42 14
-29 4 -49 13 -55 25 -14 26 -13 30 9 30 10 0 24 7 31 15 11 13 8 15 -17 15
-35 0 -72 -23 -54 -34 6 -4 9 -11 6 -16 -3 -5 -38 6 -78 25 -164 76 -300 105
-382 81 -29 -8 -29 -8 -13 10 19 20 9 19 518 25 319 3 334 6 346 66 5 26 2 34
-19 48 -20 13 -30 14 -47 5 -23 -13 -24 -50 -1 -58 9 -3 11 2 6 18 -6 19 -4
21 17 18 14 -2 24 -11 26 -24 6 -43 -17 -48 -247 -52 l-218 -4 4 59 c6 80 11
93 27 70 8 -10 20 -15 30 -11 12 5 15 2 10 -9 -4 -12 0 -15 22 -13 16 2 30 9
32 16 3 8 -2 10 -17 5 -15 -5 -21 -2 -21 10 0 12 6 14 28 9 72 -18 97 -30 94
-47 -4 -21 7 -21 32 -2 11 8 14 15 8 15 -7 0 -24 7 -37 16 l-24 16 27 24 c24
21 25 23 8 24 -11 0 -29 -9 -41 -20 -22 -20 -24 -20 -94 -5 -53 13 -71 21 -71
33 0 33 16 44 61 42 65 -4 69 -2 69 27 0 15 10 37 22 50 17 18 19 26 10 35 -9
9 -12 8 -12 -4 0 -8 -6 -21 -13 -27 -11 -8 -21 0 -47 40 -57 89 -144 136 -229
125 -96 -12 -96 -12 -99 10 -2 11 4 41 13 65 31 83 43 143 32 166 -16 36 -45
39 -79 6 l-29 -28 28 -5 c35 -7 33 -26 -10 -89 l-32 -46 -155 5 c-85 3 -166
10 -179 16 -19 8 -34 7 -64 -4 -44 -18 -57 -9 -57 39 0 21 6 28 30 33 38 7 39
29 3 67 -16 16 -29 35 -29 42 -1 6 -2 20 -3 30 -1 23 -13 22 -29 -4z m136
-238 c13 -1 21 -5 17 -10 -3 -6 -15 -8 -26 -6 -41 8 -46 -2 -44 -86 0 -48 -2
-74 -8 -64 -4 8 -5 20 -2 25 3 6 2 10 -4 10 -12 0 -9 94 3 122 4 9 15 15 24
13 9 -2 27 -4 40 -4z m112 -6 c0 -13 -73 -12 -77 1 -2 5 15 9 37 9 22 0 40 -4
40 -10z m97 0 c-3 -8 -14 -10 -62 -6 -34 2 -12 17 25 16 22 0 39 -4 37 -10z
m90 0 c-4 -11 -77 -16 -77 -5 0 12 8 15 44 15 20 0 35 -4 33 -10z m28 -60 c0
-36 -4 -65 -8 -65 -5 0 -5 -5 -2 -11 4 -5 8 -34 10 -64 2 -42 -1 -52 -11 -48
-11 4 -14 31 -14 113 0 60 3 115 6 124 12 32 19 14 19 -49z m-337 -1 c-5 -42
-28 -43 -28 -1 0 18 3 37 7 41 12 12 25 -11 21 -40z m170 37 c9 -1 12 -27 12
-95 l0 -93 -47 2 -48 1 -1 85 c0 46 3 89 7 94 4 6 21 10 36 9 15 -1 34 -3 41
-3z m-98 -36 c0 -19 -4 -35 -10 -35 -10 0 -12 7 -12 35 0 28 2 35 12 35 6 0
10 -16 10 -35z m225 6 c0 -14 -6 -26 -14 -29 -10 -3 -11 2 -6 18 6 19 4 22
-12 18 -11 -3 -28 -1 -38 5 -16 8 -17 6 -11 -17 5 -20 3 -26 -9 -26 -11 0 -15
9 -13 30 2 30 3 31 53 28 45 -3 50 -5 50 -27z m-381 -40 c-9 -11 -21 13 -16
32 6 22 6 22 12 -3 4 -14 6 -27 4 -29z m121 -29 c-3 -3 -11 0 -18 7 -9 10 -8
11 6 5 10 -3 15 -9 12 -12z m176 -26 c6 3 7 -4 4 -19 -6 -23 -4 -25 29 -25 32
0 36 3 36 25 0 13 4 21 10 18 6 -3 10 -17 10 -31 0 -13 -4 -25 -10 -25 -90
-12 -100 -6 -99 55 1 29 4 39 6 23 2 -15 9 -25 14 -21z m54 24 c-3 -5 -14 -10
-23 -9 -14 0 -13 2 3 9 27 11 27 11 20 0z m-366 -29 c21 -13 23 -122 2 -118
-17 3 -31 -40 -21 -68 7 -19 7 -19 14 3 7 19 29 34 24 15 -5 -21 16 -51 52
-73 37 -23 52 -55 35 -72 -3 -3 -35 14 -71 37 -36 24 -79 49 -95 55 -21 9 -28
17 -24 29 4 9 10 41 15 71 8 60 34 130 47 130 4 0 14 -4 22 -9z m101 -24 c0
-23 -5 -34 -15 -34 -10 0 -15 11 -15 34 0 23 5 33 15 33 10 0 15 -10 15 -33z
m70 -4 c0 -28 -3 -34 -12 -25 -16 16 -17 62 -1 62 8 0 13 -14 13 -37z m366
-69 c24 -14 51 -23 59 -20 19 7 29 -31 17 -65 -12 -30 -89 -60 -102 -39 -4 7
-13 9 -19 6 -18 -12 -12 16 7 30 11 9 13 13 4 14 -7 0 -20 -7 -29 -15 -14 -14
-13 -18 3 -37 13 -14 15 -22 7 -25 -7 -2 -39 -22 -72 -43 l-59 -38 -7 25 c-3
15 -2 29 3 32 4 3 25 17 46 30 47 30 56 53 56 148 l0 76 21 -27 c11 -14 40
-38 65 -52z m-480 26 c0 -11 -4 -20 -8 -20 -4 0 -8 -5 -8 -11 0 -5 4 -8 9 -5
5 3 12 -1 15 -10 3 -8 2 -12 -4 -9 -6 3 -10 -1 -10 -9 0 -32 21 -66 50 -81 16
-8 30 -20 30 -25 0 -19 -17 -10 -58 30 -38 35 -42 44 -42 88 0 37 12 72 25 72
0 0 1 -9 1 -20z m100 -12 c-9 -5 -14 -14 -10 -20 4 -7 -2 -8 -17 -3 -52 16
-42 45 13 37 25 -4 28 -6 14 -14z m-79 -10 c-3 -8 -6 -5 -6 6 -1 11 2 17 5 13
3 -3 4 -12 1 -19z m203 3 c0 -12 -7 -18 -17 -17 -13 1 -17 -5 -16 -21 2 -19
-1 -21 -27 -13 -15 4 -30 6 -32 4 -4 -3 -3 57 1 64 0 1 21 2 46 2 37 0 45 -3
45 -19z m117 4 c0 -8 -4 -12 -8 -9 -4 2 -11 0 -14 -6 -5 -8 -11 -7 -22 1 -11
10 -19 10 -33 1 -15 -9 -19 -7 -23 9 -5 17 0 19 47 19 39 0 53 -4 53 -15z m37
-58 c-7 -47 -13 -59 -24 -52 -5 3 -10 -1 -10 -9 0 -16 -58 -52 -68 -42 -3 3
-3 7 -1 9 73 51 79 58 79 97 0 30 3 38 14 34 9 -4 13 -16 10 -37z m-154 1 c1
-22 2 -22 14 -5 11 15 15 15 19 3 3 -8 0 -20 -8 -26 -10 -8 -17 -6 -29 12 -18
26 -20 38 -6 38 6 0 10 -10 10 -22z m434 -4 c4 -9 -4 -18 -21 -25 -33 -12 -36
-9 -21 23 13 27 32 27 42 2z m-328 -33 c-8 -9 -34 -27 -56 -40 -37 -21 -40
-21 -37 -4 1 10 13 29 27 43 17 17 22 19 17 6 -6 -14 -3 -17 9 -12 8 3 19 6
24 6 5 0 12 10 16 23 4 13 9 17 12 9 2 -7 -3 -21 -12 -31z m-276 -6 c0 -26 29
-14 48 20 10 17 11 13 12 -28 l0 -47 -27 17 c-58 35 -103 90 -53 63 11 -6 20
-17 20 -25z m620 -5 c0 -5 -10 -10 -22 -10 -19 0 -20 2 -8 10 19 13 30 13 30
0z m-471 -71 c-18 -13 -28 -15 -46 -6 -13 5 -23 13 -24 16 0 3 -2 17 -5 30 -3
19 -1 22 13 15 27 -11 67 -7 73 8 2 7 6 0 8 -16 3 -22 -2 -34 -19 -47z m-438
-48 c-16 -30 -13 -59 7 -64 9 -3 -21 -5 -68 -5 -47 0 -76 2 -65 5 32 8 62 41
85 96 13 29 28 55 34 59 15 10 21 -65 7 -91z m910 82 c0 -5 2 -16 4 -26 2 -9
-1 -33 -6 -51 -8 -30 -15 -35 -59 -46 -28 -7 -47 -16 -44 -21 3 -5 -11 -9 -30
-9 l-36 0 17 43 c9 23 27 59 40 80 21 34 27 37 68 37 25 0 45 -3 46 -7z m-800
-14 c11 -5 17 -14 14 -19 -3 -6 4 -9 17 -8 51 4 157 -86 217 -185 27 -44 22
-62 -6 -21 -10 15 -32 42 -49 61 -18 18 -28 33 -23 33 17 0 9 19 -13 32 -15 7
-56 11 -109 10 -99 -3 -106 3 -89 69 12 43 13 44 41 28z m646 -31 c-18 -30
-31 -42 -44 -40 -65 12 -81 13 -87 3 -4 -6 9 -13 31 -16 58 -10 61 -12 28 -19
-16 -4 -48 -16 -71 -27 -23 -10 -46 -19 -52 -19 -6 0 -21 -14 -34 -30 -13 -17
-33 -43 -46 -58 l-23 -27 15 37 c19 49 24 57 66 107 19 22 41 41 49 41 8 0 25
9 37 21 19 18 126 68 148 69 4 0 -3 -19 -17 -42z m238 32 c3 -5 2 -10 -4 -10
-5 0 -13 5 -16 10 -3 6 -2 10 4 10 5 0 13 -4 16 -10z m-561 -40 c11 7 31 20
44 28 19 13 22 13 22 -1 0 -18 -65 -61 -80 -52 -5 3 -10 1 -10 -5 0 -6 -20 3
-45 20 -59 41 -58 59 1 24 41 -24 49 -26 68 -14z m-564 14 c0 -9 -9 -18 -20
-21 -11 -3 -20 -11 -20 -18 0 -7 -9 -15 -20 -18 -15 -4 -11 5 17 34 42 44 43
45 43 23z m491 -63 c-5 -9 -7 -29 -5 -46 l3 -30 -24 29 c-15 19 -23 41 -22 62
2 32 2 32 29 16 19 -11 25 -20 19 -31z m139 2 c0 -22 -11 -55 -25 -78 -29 -46
-31 -44 -10 14 8 23 12 48 9 56 -8 19 2 45 16 45 5 0 10 -17 10 -37z m-50 -42
c0 -33 -6 -56 -19 -72 l-18 -23 -16 31 c-20 39 -18 105 3 98 8 -2 22 0 30 5 8
5 16 10 18 10 1 0 2 -22 2 -49z m-874 -13 c3 -4 -1 -5 -10 -4 -8 1 -18 5 -22
8 -3 4 1 5 10 4 8 -1 18 -5 22 -8z m39 -6 c-3 -3 -11 0 -18 7 -9 10 -8 11 6 5
10 -3 15 -9 12 -12z m89 10 c3 -5 -1 -9 -9 -9 -8 0 -15 4 -15 9 0 4 4 8 9 8 6
0 12 -4 15 -8z m60 0 c3 -5 -1 -9 -9 -9 -8 0 -15 4 -15 9 0 4 4 8 9 8 6 0 12
-4 15 -8z m369 1 c-7 -2 -19 -2 -25 0 -7 3 -2 5 12 5 14 0 19 -2 13 -5z m60 0
c-7 -2 -21 -2 -30 0 -10 3 -4 5 12 5 17 0 24 -2 18 -5z m38 -31 c20 -1 47 -11
60 -21 24 -20 24 -20 -36 -1 -42 12 -76 16 -110 12 -79 -8 -108 -8 -112 3 -3
9 81 12 198 7z m-75 -68 c-14 -28 -11 -84 4 -84 12 0 20 43 13 68 -8 32 14 52
56 51 22 -1 28 -3 16 -6 -63 -16 -35 -103 33 -103 12 0 34 11 48 25 l25 25 24
-26 c14 -15 25 -39 25 -53 0 -25 -3 -27 -52 -28 -61 -3 -182 -22 -215 -34 -26
-10 -28 -6 -13 22 9 15 15 17 30 9 23 -13 40 -13 40 -1 0 9 -33 24 -55 26 -5
0 -11 21 -13 46 -2 34 2 52 19 73 26 34 34 29 15 -10z m472 20 c16 -11 23 -25
22 -43 -4 -49 0 -72 10 -66 13 8 13 61 0 86 -7 13 -7 19 -1 19 17 0 41 -56 41
-95 0 -28 -5 -38 -25 -47 -14 -6 -25 -15 -25 -20 0 -10 24 -11 34 -1 11 11 36
12 36 1 0 -6 8 -16 17 -23 14 -10 9 -11 -28 -5 -24 4 -97 16 -162 26 -118 19
-118 19 -112 44 4 14 18 40 32 59 24 31 27 32 34 15 21 -59 107 -66 128 -11
12 30 -5 57 -35 57 -25 0 -43 -24 -29 -38 4 -4 10 -1 12 6 7 20 33 14 33 -8 0
-46 -71 -46 -85 1 -8 25 -8 24 35 43 44 19 41 19 68 0z m-318 -34 c0 -27 -34
-44 -61 -30 -27 15 -20 46 10 42 17 -1 22 2 17 13 -4 13 -2 14 14 5 11 -6 20
-19 20 -30z m132 18 c-7 -7 -12 -8 -12 -2 0 14 12 26 19 19 2 -3 -1 -11 -7
-17z m-12 -44 c0 -8 -4 -12 -10 -9 -5 3 -10 13 -10 21 0 8 5 12 10 9 6 -3 10
-13 10 -21z m-413 -79 c-7 -13 -14 -20 -15 -14 -2 5 2 16 8 24 18 21 20 18 7
-10z m807 19 c18 -7 22 -49 5 -60 -8 -4 -9 1 -4 16 5 15 2 25 -6 31 -21 13
-29 11 -39 -13 -8 -22 -9 -22 -9 -2 -1 33 17 42 53 28z m-424 -54 c0 -6 -11
-8 -25 -6 -25 5 -34 -7 -15 -19 6 -3 10 -1 10 5 0 6 4 9 9 6 5 -4 7 -20 5 -36
-4 -25 -2 -30 16 -30 14 0 19 4 14 13 -6 10 -4 10 7 0 21 -20 55 -15 67 10 10
21 11 21 13 2 1 -11 1 -23 0 -27 0 -5 8 -8 20 -8 15 0 19 4 15 16 -3 9 -9 27
-12 40 -8 32 -16 30 -38 -7 -21 -35 -42 -33 -38 5 2 18 -2 26 -13 26 -9 0 -14
-4 -10 -9 3 -5 0 -13 -6 -16 -7 -5 -9 1 -7 16 3 26 3 26 102 15 38 -4 65 -11
60 -14 -5 -4 -10 -14 -10 -22 -1 -8 -3 -24 -5 -35 -3 -15 2 -21 21 -23 14 -2
20 0 14 5 -7 5 -9 22 -6 42 5 33 5 33 46 26 22 -4 75 -9 116 -11 41 -1 74 -5
74 -9 -1 -3 -5 -21 -8 -40 -8 -39 -9 -40 -53 -50 -22 -4 -33 -3 -33 5 0 6 5 8
10 5 14 -8 13 -1 -5 41 -8 21 -19 33 -25 29 -6 -4 -9 -14 -6 -22 3 -8 2 -11
-4 -8 -5 3 -14 -4 -20 -15 -9 -16 -8 -20 5 -20 9 0 13 5 10 10 -3 6 1 10 9 10
9 0 16 -8 16 -19 0 -17 -4 -18 -29 -11 -16 4 -32 6 -35 3 -5 -6 1 39 10 68 3
10 -2 18 -14 21 -15 4 -17 0 -14 -25 3 -19 1 -28 -6 -23 -6 3 -13 2 -17 -3 -3
-5 3 -15 12 -21 16 -10 15 -11 -7 -6 -94 19 -186 28 -255 23 -78 -6 -98 -9
-180 -27 -22 -5 -40 -8 -40 -7 -1 1 -12 20 -25 41 l-24 40 -17 -40 c-9 -21
-14 -41 -11 -44 2 -3 7 1 9 8 6 16 21 15 39 -3 14 -13 12 -15 -13 -16 -40 -2
-67 2 -75 9 -3 4 -9 28 -13 54 l-7 46 49 -1 c49 -1 128 9 142 18 5 2 33 7 62
11 30 3 55 7 56 8 9 7 83 4 83 -4z m-345 -10 c3 -5 2 -10 -4 -10 -5 0 -13 5
-16 10 -3 6 -2 10 4 10 5 0 13 -4 16 -10z m368 -114 c6 -15 -1 -26 -15 -26 -4
0 -8 9 -8 20 0 23 15 27 23 6z m-53 -13 c0 -5 -5 -15 -10 -23 -7 -11 -12 -12
-21 -3 -6 6 -8 16 -5 22 8 12 36 15 36 4z m133 -7 c7 -18 -1 -26 -25 -26 -20
0 -25 26 -5 33 20 9 25 8 30 -7z m-53 -93 c0 -8 -11 -13 -29 -13 -29 0 -30 1
-19 31 10 29 11 29 29 13 11 -9 19 -23 19 -31z m-225 -3 c-27 -12 -43 -12 -25
0 8 5 22 9 30 9 10 0 8 -3 -5 -9z m400 -20 c3 -6 -1 -7 -9 -4 -18 7 -21 14 -7
14 6 0 13 -4 16 -10z m-185 -4 c0 -8 -51 -13 -56 -5 -3 5 9 9 25 9 17 0 31 -2
31 -4z"/>
<path d="M979 1309 c-9 -6 -10 -9 -2 -9 7 0 10 -7 7 -15 -4 -10 0 -15 15 -15
14 0 21 6 21 19 0 22 -21 33 -41 20z"/>
<path d="M995 1250 c-3 -5 -1 -10 4 -10 6 0 11 5 11 10 0 6 -2 10 -4 10 -3 0
-8 -4 -11 -10z"/>
<path d="M966 1221 c-4 -5 -2 -12 3 -15 5 -4 12 -2 15 3 4 5 2 12 -3 15 -5 4
-12 2 -15 -3z"/>
<path d="M1015 1220 c-3 -5 1 -10 10 -10 9 0 13 5 10 10 -3 6 -8 10 -10 10 -2
0 -7 -4 -10 -10z"/>
<path d="M974 1179 c-8 -14 18 -31 30 -19 9 9 0 30 -14 30 -5 0 -12 -5 -16
-11z"/>
<path d="M710 995 c0 -10 41 -25 52 -19 8 5 5 10 -8 15 -22 9 -44 11 -44 4z"/>
<path d="M1287 1084 c-18 -19 6 -94 30 -94 7 0 13 5 13 10 0 6 -6 10 -14 10
-9 0 -12 8 -9 24 5 26 -9 61 -20 50z"/>
<path d="M1405 960 c-3 -5 1 -10 9 -10 9 0 16 5 16 10 0 6 -4 10 -9 10 -6 0
-13 -4 -16 -10z"/>
<path d="M1436 945 c-3 -8 -12 -12 -20 -9 -8 3 -17 1 -20 -4 -3 -5 8 -9 25
-10 16 0 27 4 24 9 -4 5 1 9 9 9 9 0 16 5 16 10 0 16 -27 12 -34 -5z"/>
<path d="M695 910 c3 -5 10 -10 16 -10 5 0 9 5 9 10 0 6 -7 10 -16 10 -8 0
-12 -4 -9 -10z"/>
<path d="M730 910 c0 -5 5 -10 10 -10 6 0 10 5 10 10 0 6 -4 10 -10 10 -5 0
-10 -4 -10 -10z"/>
<path d="M833 549 c-31 -11 -29 -37 3 -45 15 -4 23 -12 20 -20 -3 -8 0 -11 10
-7 7 3 14 14 14 24 0 14 -7 19 -25 19 -14 0 -25 5 -25 11 0 6 9 9 20 6 11 -3
20 -1 20 3 0 15 -14 18 -37 9z"/>
<path d="M880 550 c0 -5 6 -9 13 -7 7 1 12 -10 12 -29 0 -25 4 -30 18 -26 11
3 16 10 13 19 -3 8 -6 23 -6 34 0 14 -7 19 -25 19 -14 0 -25 -4 -25 -10z"/>
<path d="M790 509 c7 -23 6 -31 -6 -36 -19 -7 -26 0 -28 31 0 17 -7 26 -18 26
-14 0 -15 -5 -7 -32 5 -18 9 -34 9 -35 0 -9 59 -1 62 9 6 17 -3 68 -12 68 -5
0 -5 -14 0 -31z"/>
<path d="M820 486 c0 -9 5 -16 10 -16 6 0 10 4 10 9 0 6 -4 13 -10 16 -5 3
-10 -1 -10 -9z"/>
<path d="M902 1513 c3 -15 14 -18 58 -18 37 1 54 5 53 13 -4 17 26 15 33 -2 7
-17 44 -17 44 0 0 7 6 15 13 17 6 3 -37 6 -96 6 -98 1 -108 -1 -105 -16z m68
-3 c0 -5 -7 -10 -15 -10 -8 0 -15 5 -15 10 0 6 7 10 15 10 8 0 15 -4 15 -10z"/>
<path d="M1740 1368 c0 -38 20 -68 46 -68 8 0 14 5 14 11 0 6 -7 9 -15 5 -11
-4 -15 2 -15 22 0 16 -7 37 -15 48 -13 18 -14 17 -15 -18z"/>
<path d="M249 1388 c-5 -24 -4 -35 3 -55 4 -14 4 -23 -3 -23 -6 0 -7 -5 -4
-10 5 -8 11 -8 20 0 10 8 14 7 18 -2 2 -7 8 -9 13 -5 5 5 1 15 -10 22 -10 8
-16 21 -13 29 3 8 -1 22 -8 33 -8 10 -15 15 -16 11z"/>
<path d="M1786 1363 c-11 -11 -6 -23 9 -23 8 0 15 4 15 9 0 13 -16 22 -24 14z"/>
<path d="M212 1331 c4 -13 18 -16 19 -4 0 4 -5 9 -11 12 -7 2 -11 -2 -8 -8z"/>
<path d="M1810 1315 c0 -8 5 -15 10 -15 6 0 10 7 10 15 0 8 -4 15 -10 15 -5 0
-10 -7 -10 -15z"/>
<path d="M1730 1306 c0 -9 5 -16 10 -16 6 0 10 4 10 9 0 6 -4 13 -10 16 -5 3
-10 -1 -10 -9z"/>
<path d="M1589 1305 c0 -6 -2 -17 -3 -25 -2 -8 1 -26 6 -40 7 -20 11 -22 18
-10 5 8 7 26 3 40 -6 27 -22 51 -24 35z"/>
<path d="M210 1290 c0 -5 7 -10 15 -10 8 0 15 5 15 10 0 6 -7 10 -15 10 -8 0
-15 -4 -15 -10z"/>
<path d="M1675 1291 c-4 -7 -4 -23 -1 -37 4 -14 2 -24 -4 -24 -5 0 -10 -7 -10
-15 0 -18 9 -19 31 -2 17 13 18 42 2 71 -7 13 -12 15 -18 7z"/>
<path d="M1755 1289 c-10 -15 3 -25 16 -12 7 7 7 13 1 17 -6 3 -14 1 -17 -5z"/>
<path d="M240 1269 c0 -5 -7 -6 -16 -2 -25 9 -13 -17 19 -41 27 -20 50 -15 29
6 -17 17 -15 31 3 24 9 -3 15 0 15 8 0 8 -11 14 -25 14 -14 0 -25 -4 -25 -9z"/>
<path d="M1759 1258 c-8 -7 -21 -21 -28 -30 -20 -26 9 -24 37 2 34 32 26 57
-9 28z"/>
<path d="M1768 1208 c-19 -27 -22 -37 -13 -55 5 -13 13 -23 17 -23 11 0 10 18
-2 25 -6 4 -2 15 10 27 17 19 28 58 16 58 -2 0 -14 -15 -28 -32z"/>
<path d="M182 1222 c-9 -3 -5 -11 15 -23 33 -22 55 -25 47 -5 -6 17 -45 34
-62 28z"/>
<path d="M346 1201 c-4 -7 -5 -15 -2 -18 9 -9 19 4 14 18 -4 11 -6 11 -12 0z"/>
<path d="M375 1200 c-3 -5 1 -10 9 -10 9 0 16 5 16 10 0 6 -4 10 -9 10 -6 0
-13 -4 -16 -10z"/>
<path d="M1705 1189 c-10 -15 3 -25 16 -12 7 7 7 13 1 17 -6 3 -14 1 -17 -5z"/>
<path d="M1670 1180 c0 -5 5 -10 10 -10 6 0 10 5 10 10 0 6 -4 10 -10 10 -5 0
-10 -4 -10 -10z"/>
<path d="M1790 1160 c0 -5 4 -10 9 -10 6 0 13 5 16 10 3 6 -1 10 -9 10 -9 0
-16 -4 -16 -10z"/>
<path d="M1822 1151 c-13 -9 -20 -20 -16 -24 12 -12 24 -8 24 7 0 8 8 16 18
18 9 2 13 6 7 10 -6 4 -21 -1 -33 -11z"/>
<path d="M230 1125 c0 -8 5 -15 10 -15 6 0 10 7 10 15 0 8 -4 15 -10 15 -5 0
-10 -7 -10 -15z"/>
<path d="M1726 1131 c-7 -11 24 -31 48 -31 21 0 20 16 -1 24 -10 3 -23 8 -30
12 -6 3 -14 1 -17 -5z"/>
<path d="M316 1121 c-4 -7 -5 -15 -2 -18 9 -9 19 4 14 18 -4 11 -6 11 -12 0z"/>
<path d="M370 1090 c0 -5 5 -10 10 -10 6 0 10 5 10 10 0 6 -4 10 -10 10 -5 0
-10 -4 -10 -10z"/>
<path d="M383 1067 c-27 -12 -30 -27 -5 -27 16 1 73 28 62 30 -27 6 -38 6 -57
-3z"/>
<path d="M178 1044 c-8 -14 9 -54 27 -60 25 -10 5 -26 -28 -22 -18 2 -32 -2
-34 -9 -3 -9 7 -12 37 -9 50 5 54 8 46 39 -7 31 -41 73 -48 61z"/>
<path d="M1787 988 c-21 -21 -28 -33 -19 -36 14 -4 48 23 63 50 16 29 -9 21
-44 -14z"/>
<path d="M130 990 c0 -5 5 -10 10 -10 6 0 10 5 10 10 0 6 -4 10 -10 10 -5 0
-10 -4 -10 -10z"/>
<path d="M262 988 c6 -16 42 -28 59 -18 17 11 12 16 -29 23 -23 5 -32 3 -30
-5z"/>
<path d="M160 980 c0 -5 7 -10 15 -10 8 0 15 5 15 10 0 6 -7 10 -15 10 -8 0
-15 -4 -15 -10z"/>
<path d="M1840 981 c0 -5 5 -13 10 -16 6 -4 8 -11 5 -16 -4 -5 1 -9 11 -9 14
0 15 2 3 17 -8 9 -13 19 -11 22 2 3 -1 7 -7 9 -6 2 -11 -1 -11 -7z"/>
<path d="M1882 981 c2 -7 7 -12 11 -12 12 1 9 15 -3 20 -7 2 -11 -2 -8 -8z"/>
<path d="M105 969 c-10 -15 3 -25 16 -12 7 7 7 13 1 17 -6 3 -14 1 -17 -5z"/>
<path d="M1809 958 c-14 -44 10 -66 58 -53 32 8 17 28 -20 28 -18 0 -24 4 -20
13 3 8 0 14 -6 14 -6 0 -11 -1 -12 -2z"/>
<path d="M130 920 c-8 -5 -13 -10 -10 -11 3 0 14 -2 26 -4 12 -3 30 2 40 10
18 14 17 14 -11 15 -16 0 -37 -5 -45 -10z"/>
<path d="M1690 920 c0 -5 5 -10 12 -10 6 0 8 -3 5 -7 -8 -7 21 -43 35 -43 4 0
8 5 8 10 0 6 -6 10 -14 10 -8 0 -17 11 -20 25 -6 24 -26 36 -26 15z"/>
<path d="M270 890 c0 -5 4 -10 9 -10 6 0 13 5 16 10 3 6 -1 10 -9 10 -9 0 -16
-4 -16 -10z"/>
<path d="M1625 890 c-7 -12 31 -50 50 -50 14 0 14 3 0 24 -18 28 -42 40 -50
26z"/>
<path d="M1802 881 c15 -25 50 -39 56 -23 7 23 7 25 -8 28 -8 2 -26 6 -38 10
-22 6 -23 5 -10 -15z"/>
<path d="M1870 890 c0 -5 7 -10 15 -10 8 0 15 5 15 10 0 6 -7 10 -15 10 -8 0
-15 -4 -15 -10z"/>
<path d="M1880 855 c0 -9 6 -12 15 -9 8 4 12 10 9 15 -8 14 -24 10 -24 -6z"/>
<path d="M1403 773 c-23 -9 -13 -25 12 -21 17 4 25 1 25 -8 0 -16 16 -19 25
-4 3 6 0 10 -7 10 -8 1 -6 6 6 15 19 14 18 15 -15 14 -19 0 -40 -3 -46 -6z"/>
<path d="M550 750 c0 -5 4 -10 9 -10 6 0 13 5 16 10 3 6 -1 10 -9 10 -9 0 -16
-4 -16 -10z"/>
<path d="M1514 735 c-18 -14 -17 -14 12 -15 16 0 39 7 50 15 18 14 17 14 -12
15 -16 0 -39 -7 -50 -15z"/>
<path d="M386 731 c-4 -5 -2 -12 3 -15 5 -4 12 -2 15 3 4 5 2 12 -3 15 -5 4
-12 2 -15 -3z"/>
<path d="M420 720 c0 -5 5 -10 11 -10 5 0 7 5 4 10 -3 6 -8 10 -11 10 -2 0 -4
-4 -4 -10z"/>
<path d="M1570 695 c0 -8 5 -15 10 -15 6 0 10 7 10 15 0 8 -4 15 -10 15 -5 0
-10 -7 -10 -15z"/>
<path d="M250 675 c23 -25 50 -33 50 -16 0 11 -45 41 -61 41 -7 0 -2 -11 11
-25z"/>
<path d="M1742 677 c-24 -25 -28 -37 -12 -37 11 0 50 40 50 52 0 15 -16 8 -38
-15z"/>
<path d="M90 675 c0 -9 5 -15 11 -13 6 2 11 8 11 13 0 5 -5 11 -11 13 -6 2
-11 -4 -11 -13z"/>
<path d="M1826 664 c-10 -14 -16 -30 -14 -35 5 -14 48 28 48 46 0 23 -16 18
-34 -11z"/>
<path d="M55 670 c-3 -5 1 -10 9 -10 9 0 16 5 16 10 0 6 -4 10 -9 10 -6 0 -13
-4 -16 -10z"/>
<path d="M130 670 c0 -13 18 -22 24 -11 3 5 -1 11 -9 15 -8 3 -15 1 -15 -4z"/>
<path d="M230 660 c0 -5 5 -10 10 -10 6 0 10 5 10 10 0 6 -4 10 -10 10 -5 0
-10 -4 -10 -10z"/>
<path d="M1784 656 c-3 -9 -12 -16 -20 -16 -8 0 -14 -4 -14 -10 0 -16 19 -12
41 9 13 12 17 21 10 26 -6 3 -14 -1 -17 -9z"/>
<path d="M1882 662 c-12 -2 -20 -8 -17 -13 4 -5 -1 -12 -9 -15 -9 -3 -13 -10
-10 -15 3 -5 -5 -9 -18 -9 -22 0 -21 -1 7 -20 17 -11 39 -20 50 -20 20 1 20 1
-1 18 -26 22 -17 54 17 62 29 7 13 18 -19 12z"/>
<path d="M70 640 c0 -5 7 -10 15 -10 8 0 15 5 15 10 0 6 -7 10 -15 10 -8 0
-15 -4 -15 -10z"/>
<path d="M110 640 c0 -5 5 -10 10 -10 6 0 10 5 10 10 0 6 -4 10 -10 10 -5 0
-10 -4 -10 -10z"/>
<path d="M1885 631 c-6 -11 9 -23 19 -14 9 9 7 23 -3 23 -6 0 -12 -4 -16 -9z"/>
<path d="M215 600 c3 -5 10 -10 16 -10 5 0 9 5 9 10 0 6 -7 10 -16 10 -8 0
-12 -4 -9 -10z"/>
<path d="M406 601 c-4 -7 -5 -15 -2 -18 9 -9 19 4 14 18 -4 11 -6 11 -12 0z"/>
<path d="M1615 601 c-6 -11 9 -23 19 -14 9 9 7 23 -3 23 -6 0 -12 -4 -16 -9z"/>
<path d="M1772 589 c2 -6 8 -10 13 -10 5 0 11 4 13 10 2 6 -4 11 -13 11 -9 0
-15 -5 -13 -11z"/>
<path d="M1610 551 c0 -24 49 -84 50 -61 0 16 -36 80 -45 80 -3 0 -5 -9 -5
-19z"/>
<path d="M362 540 c-12 -12 -22 -25 -22 -31 0 -12 52 14 69 35 21 25 -20 21
-47 -4z"/>
<path d="M405 493 c9 -36 13 -39 27 -25 9 9 7 13 -5 17 -9 4 -13 13 -10 21 3
8 0 14 -7 14 -8 0 -10 -9 -5 -27z"/>
<path d="M430 500 c0 -5 7 -10 15 -10 8 0 15 5 15 10 0 6 -7 10 -15 10 -8 0
-15 -4 -15 -10z"/>
<path d="M442 457 c-27 -29 -28 -37 -2 -30 10 3 22 14 26 25 9 29 0 31 -24 5z"/>
<path d="M504 450 c4 -19 13 -41 21 -50 13 -13 15 -11 15 10 0 14 -10 36 -21
50 l-21 25 6 -35z"/>
<path d="M1560 447 c0 -8 9 -22 20 -32 22 -20 27 -7 10 26 -12 22 -30 25 -30
6z"/>
<path d="M1530 425 c0 -8 5 -15 10 -15 6 0 10 7 10 15 0 8 -4 15 -10 15 -5 0
-10 -7 -10 -15z"/>
<path d="M1482 410 c-12 -11 -22 -28 -22 -38 0 -13 5 -11 26 10 32 32 29 58
-4 28z"/>
<path d="M1535 390 c4 -6 11 -8 16 -5 14 9 11 15 -7 15 -8 0 -12 -5 -9 -10z"/>
</g>
</svg>
